<svg xmlns="http://www.w3.org/2000/svg" data-name="Layer 1" viewBox="0 0 512 512"><path d="M251.825,492h65.422A7.66,7.66,0,0,0,325,484.157V369.711c34-9.088,63.829-30.087,85.894-59.659,23.614-31.648,36.681-71.676,36.681-112.71,0-47.265-16.536-91.729-46.617-125.2-30.31-33.726-70.7-52.3-113.756-52.3a146.589,146.589,0,0,0-72.944,19.338A165.843,165.843,0,0,0,163.47,84.344a66.972,66.972,0,1,0-36.182,125.609C132.058,284.27,179,347.85,244,368.142V484.157A7.72,7.72,0,0,0,251.825,492ZM309,476H260V349.56a24.5,24.5,0,1,1,49,0ZM287.218,35.843c79.633,0,144.419,72.449,144.419,161.5A177.35,177.35,0,0,1,424.866,246H149.538a176.963,176.963,0,0,1-6.363-36.973A66.938,66.938,0,0,0,176.481,93.652C204.014,56.824,243.991,35.843,287.218,35.843ZM80.363,143.107a50.987,50.987,0,1,1,50.987,50.987A51.045,51.045,0,0,1,80.363,143.107ZM154.941,262H419.449C402.208,305.747,368,339.952,325,353.063v-3.5a40.5,40.5,0,1,0-81,0v1.721C203,337.009,171.417,303.9,154.941,262Z"/></svg>